<svg xmlns="http://www.w3.org/2000/svg" viewBox="0 0 1080 1080" width="1080" height="1080">
  <defs>
    <linearGradient id="bg" x1="0%" y1="0%" x2="100%" y2="100%">
      <stop offset="0%" style="stop-color:#0f172a"/>
      <stop offset="100%" style="stop-color:#1e293b"/>
    </linearGradient>
    <linearGradient id="accent" x1="0%" y1="0%" x2="100%" y2="100%">
      <stop offset="0%" style="stop-color:#22d3ee"/>
      <stop offset="100%" style="stop-color:#06b6d4"/>
    </linearGradient>
  </defs>
  <rect width="1080" height="1080" fill="url(#bg)"/>
  <rect x="140" y="180" width="800" height="720" rx="40" fill="#1e293b" stroke="#334155" stroke-width="2"/>
  <rect x="160" y="200" width="760" height="50" rx="10" fill="#0f172a"/>
  <circle cx="190" cy="225" r="8" fill="#ef4444"/>
  <circle cx="220" cy="225" r="8" fill="#f59e0b"/>
  <circle cx="250" cy="225" r="8" fill="#22c55e"/>
  <text x="540" y="230" font-family="system-ui,sans-serif" font-size="18" fill="#94a3b8" text-anchor="middle">ToolNova • QR Code Generator</text>
  <rect x="340" y="320" width="400" height="400" rx="20" fill="#ffffff"/>
  <g fill="#0f172a">
    <rect x="370" y="350" width="80" height="80"/>
    <rect x="630" y="350" width="80" height="80"/>
    <rect x="370" y="610" width="80" height="80"/>
    <rect x="490" y="490" width="40" height="40"/>
    <rect x="550" y="490" width="40" height="40"/>
    <rect x="490" y="550" width="40" height="40"/>
    <rect x="610" y="490" width="40" height="40"/>
    <rect x="490" y="430" width="40" height="40"/>
  </g>
  <circle cx="540" cy="520" r="50" fill="url(#accent)" opacity="0.9"/>
  <path d="M520 530 v-15 a20 20 0 0 1 40 0 v15 h-40 z" fill="#0f172a"/>
  <rect x="510" y="525" width="60" height="40" rx="8" fill="#0f172a"/>
  <text x="540" y="780" font-family="system-ui,sans-serif" font-size="36" font-weight="bold" fill="#22d3ee" text-anchor="middle">100% Private</text>
  <text x="540" y="830" font-family="system-ui,sans-serif" font-size="22" fill="#cbd5e1" text-anchor="middle">Wi-Fi • UPI • WhatsApp • Links</text>
  <text x="540" y="870" font-family="system-ui,sans-serif" font-size="20" fill="#94a3b8" text-anchor="middle">Nothing leaves your browser</text>
</svg>